<svg width="659" height="92" viewBox="0 0 659 92" fill="none" xmlns="http://www.w3.org/2000/svg">
<path d="M29.5942 0H0V91.5694H29.5942C54.8753 91.5694 75.3789 71.0658 75.3789 45.7847C75.3789 20.5036 54.8753 0 29.5942 0Z" fill="white"/>
<path d="M104.907 0H75.3125V45.7847V91.5694H104.907C130.188 91.5694 150.691 71.0658 150.691 45.7847C150.691 20.5036 130.188 0 104.907 0Z" fill="white"/>
<path d="M196.476 0C171.195 0 150.691 20.5036 150.691 45.7847C150.691 71.0658 171.195 91.5694 196.476 91.5694H226.07V0H196.476Z" fill="#C8B700"/>
<path d="M285.659 45.7184C285.659 48.9002 284.864 51.4002 283.159 53.1047C281.455 54.8093 278.955 55.6047 275.659 55.6047H271V36.2865H276.227C279.295 36.2865 281.682 37.082 283.273 38.6729C284.864 40.2638 285.659 42.5366 285.659 45.7184ZM284.182 45.7184C284.182 42.9911 283.5 40.832 282.136 39.4684C280.773 38.1048 278.727 37.4229 276 37.4229H272.477V54.3547H275.659C281.341 54.3547 284.182 51.4002 284.182 45.7184Z" fill="white"/>
<path d="M307.591 55.4911H297.023V36.1729H307.591V37.4229H298.386V44.6956H307.023V45.9456H298.386V54.2411H307.591V55.4911Z" fill="white"/>
<path d="M327.477 55.4911L320.318 37.6502H320.205C320.318 38.7865 320.318 39.8093 320.318 40.9457V55.3775H319.068V36.0593H321.114L327.932 52.9911H328.045L334.864 36.0593H336.909V55.3775H335.545V40.832C335.545 39.8092 335.545 38.7865 335.659 37.6502H335.545L328.386 55.3775H327.477V55.4911Z" fill="white"/>
<path d="M359.864 55.4911H349.295V36.1729H359.864V37.4229H350.659V44.6956H359.295V45.9456H350.659V54.2411H359.864V55.4911Z" fill="white"/>
<path d="M371.227 55.4911V36.1729H372.591V54.1274H381.795V55.3774H371.227V55.4911Z" fill="white"/>
<path d="M392.022 55.4911V36.1729H393.386V54.1274H402.591V55.3774H392.022V55.4911Z" fill="white"/>
<path d="M429.182 45.832C429.182 48.9002 428.386 51.2866 426.909 53.1047C425.432 54.9229 423.272 55.7184 420.545 55.7184C417.818 55.7184 415.772 54.8093 414.182 53.1047C412.704 51.2866 411.909 48.9002 411.909 45.832C411.909 42.7638 412.704 40.3774 414.182 38.5593C415.772 36.7411 417.818 35.9456 420.545 35.9456C423.272 35.9456 425.318 36.8547 426.909 38.5593C428.386 40.3774 429.182 42.7638 429.182 45.832ZM413.386 45.832C413.386 48.5593 413.954 50.7183 415.204 52.1956C416.454 53.6729 418.159 54.4683 420.545 54.4683C422.818 54.4683 424.636 53.6729 425.886 52.1956C427.136 50.7183 427.704 48.5593 427.704 45.832C427.704 43.1047 427.136 40.9457 425.886 39.4684C424.636 37.9911 422.931 37.1957 420.545 37.1957C418.272 37.1957 416.454 37.9911 415.204 39.4684C413.954 40.9457 413.386 43.1047 413.386 45.832Z" fill="white"/>
<path d="M469.181 45.7184C469.181 48.9002 468.386 51.4002 466.681 53.1047C464.977 54.8093 462.477 55.6047 459.181 55.6047H454.522V36.2865H459.75C462.818 36.2865 465.204 37.082 466.795 38.6729C468.386 40.2638 469.181 42.5366 469.181 45.7184ZM467.818 45.7184C467.818 42.9911 467.136 40.832 465.772 39.4684C464.409 38.1048 462.363 37.4229 459.636 37.4229H456.113V54.3547H459.295C464.863 54.3547 467.818 51.4002 467.818 45.7184Z" fill="white"/>
<path d="M480.659 54.2411H489.863V45.9456H481.227V44.6956H489.863V37.4229H480.659V36.1729H491.227V55.4911H480.659V54.2411Z" fill="white"/>
<path d="M513.272 50.491C513.272 52.082 512.704 53.332 511.454 54.3547C510.318 55.2638 508.727 55.7184 506.795 55.7184C504.409 55.7184 502.591 55.4911 501.341 54.9229V53.5592C502.704 54.1274 504.522 54.4683 506.681 54.4683C508.272 54.4683 509.522 54.1274 510.431 53.332C511.34 52.6501 511.795 51.6274 511.795 50.491C511.795 49.8092 511.681 49.1274 511.34 48.6729C511 48.2184 510.545 47.7638 509.863 47.3093C509.181 46.9683 508.159 46.5138 506.795 46.0593C504.863 45.3775 503.5 44.6956 502.704 43.9002C501.909 43.1047 501.568 42.082 501.568 40.7184C501.568 39.2411 502.136 38.1048 503.272 37.1957C504.409 36.2866 505.886 35.832 507.591 35.832C509.409 35.832 511.113 36.1729 512.704 36.8547L512.25 37.9911C510.659 37.3093 509.068 36.9684 507.704 36.9684C506.227 36.9684 505.204 37.3093 504.295 37.9911C503.5 38.6729 503.045 39.582 503.045 40.7184C503.045 41.4002 503.159 41.9684 503.386 42.4229C503.613 42.8775 504.068 43.332 504.636 43.6729C505.204 44.0138 506.227 44.4683 507.704 45.0365C509.181 45.6047 510.318 46.0592 511.113 46.5138C511.909 46.9683 512.363 47.5365 512.818 48.2183C513.045 48.9001 513.272 49.582 513.272 50.491Z" fill="white"/>
<path d="M524.295 55.4911V36.1729H525.659V55.4911H524.295Z" fill="white"/>
<path d="M545.659 45.7184H552.818V54.4683C550.999 55.2638 548.84 55.6047 546.568 55.6047C543.499 55.6047 541.227 54.6956 539.522 52.9911C537.931 51.2865 537.136 48.7866 537.136 45.7184C537.136 43.7866 537.59 41.9683 538.386 40.4911C539.181 39.0138 540.318 37.7638 541.795 36.9684C543.272 36.1729 544.977 35.7183 546.909 35.7183C548.954 35.7183 550.886 36.0593 552.59 36.8547L552.022 38.1047C550.318 37.3093 548.613 36.9684 546.795 36.9684C544.295 36.9684 542.249 37.7638 540.772 39.3547C539.295 40.9456 538.499 42.9911 538.499 45.7184C538.499 48.6729 539.181 50.832 540.659 52.3093C542.022 53.7865 544.181 54.4683 546.909 54.4683C548.727 54.4683 550.204 54.2411 551.454 53.6729V46.8547H545.772V45.7184H545.659Z" fill="white"/>
<path d="M578.613 55.4911H577.249L565.886 38.332H565.772C565.886 40.3775 565.886 41.8547 565.886 42.9911V55.4911H564.636V36.1729H565.999L577.363 53.2183H577.477C577.363 51.6274 577.363 50.1502 577.363 48.6729V36.0593H578.613V55.4911Z" fill="white"/>
<path d="M613.386 37.1957C610.999 37.1957 609.068 37.9911 607.704 39.4684C606.34 41.0593 605.658 43.1047 605.658 45.832C605.658 48.5593 606.34 50.7183 607.59 52.1956C608.954 53.6729 610.772 54.4683 613.158 54.4683C614.749 54.4683 616.227 54.241 617.59 53.9001V55.0365C616.34 55.491 614.749 55.7184 612.818 55.7184C610.09 55.7184 607.931 54.8093 606.454 53.1047C604.863 51.4002 604.067 48.9002 604.067 45.832C604.067 43.9002 604.408 42.1957 605.204 40.6048C605.999 39.1275 607.022 37.9911 608.386 37.1957C609.749 36.4002 611.34 35.9456 613.272 35.9456C615.204 35.9456 616.795 36.2866 618.272 36.9684L617.704 38.2184C616.454 37.5365 614.977 37.1957 613.386 37.1957Z" fill="white"/>
<path d="M645.09 45.832C645.09 48.9002 644.295 51.2866 642.818 53.1047C641.34 54.9229 639.181 55.7184 636.454 55.7184C633.727 55.7184 631.681 54.8093 630.09 53.1047C628.613 51.2866 627.817 48.9002 627.817 45.832C627.817 42.7638 628.613 40.3774 630.09 38.5593C631.681 36.7411 633.727 35.9456 636.454 35.9456C639.181 35.9456 641.227 36.8547 642.818 38.5593C644.408 40.3774 645.09 42.7638 645.09 45.832ZM629.408 45.832C629.408 48.5593 629.977 50.7183 631.227 52.1956C632.477 53.6729 634.181 54.4683 636.568 54.4683C638.84 54.4683 640.658 53.6729 641.908 52.1956C643.158 50.7183 643.727 48.5593 643.727 45.832C643.727 43.1047 643.158 40.9457 641.908 39.4684C640.658 37.9911 638.954 37.1957 636.568 37.1957C634.295 37.1957 632.477 37.9911 631.227 39.4684C629.977 40.9457 629.408 43.1047 629.408 45.832Z" fill="white"/>
<path d="M655.999 45.9456C655.999 45.0365 656.34 44.6956 657.022 44.6956C657.704 44.6956 658.158 45.1501 658.158 45.9456C658.158 46.8547 657.818 47.1956 657.022 47.1956C656.34 47.1956 655.999 46.8547 655.999 45.9456Z" fill="white"/>
</svg>
